<mxfile host="app.diagrams.net" agent="Mozilla/5.0 (Windows NT 10.0; Win64; x64) AppleWebKit/537.36 (KHTML, like Gecko) Chrome/130.0.0.0 Safari/537.36 Edg/130.0.0.0" version="24.7.17">
  <diagram name="Page-1" id="DIRgaIvWKl16tG29s0D4">
    <mxGraphModel dx="1426" dy="3121" grid="1" gridSize="10" guides="1" tooltips="1" connect="1" arrows="1" fold="1" page="1" pageScale="1" pageWidth="827" pageHeight="1169" math="0" shadow="0">
      <root>
        <mxCell id="0" />
        <mxCell id="1" parent="0" />
        <mxCell id="0BaWIgubVR3InF2J2Lcc-3" style="edgeStyle=orthogonalEdgeStyle;rounded=0;orthogonalLoop=1;jettySize=auto;html=1;" parent="1" source="0BaWIgubVR3InF2J2Lcc-2" edge="1">
          <mxGeometry relative="1" as="geometry">
            <mxPoint x="394" y="-2190" as="targetPoint" />
          </mxGeometry>
        </mxCell>
        <mxCell id="0BaWIgubVR3InF2J2Lcc-2" value="start" style="strokeWidth=2;html=1;shape=mxgraph.flowchart.start_1;whiteSpace=wrap;" parent="1" vertex="1">
          <mxGeometry x="344" y="-2310" width="100" height="60" as="geometry" />
        </mxCell>
        <mxCell id="0BaWIgubVR3InF2J2Lcc-5" style="edgeStyle=orthogonalEdgeStyle;rounded=0;orthogonalLoop=1;jettySize=auto;html=1;" parent="1" source="0BaWIgubVR3InF2J2Lcc-4" edge="1">
          <mxGeometry relative="1" as="geometry">
            <mxPoint x="394" y="-2030" as="targetPoint" />
          </mxGeometry>
        </mxCell>
        <mxCell id="0BaWIgubVR3InF2J2Lcc-4" value="draw a card&lt;div&gt;from the deck&lt;/div&gt;" style="rounded=1;whiteSpace=wrap;html=1;absoluteArcSize=1;arcSize=14;strokeWidth=2;" parent="1" vertex="1">
          <mxGeometry x="344" y="-2190" width="100" height="100" as="geometry" />
        </mxCell>
        <mxCell id="k9S6JB_G3xzHaX6I3Fsw-5" value="incorrect" style="edgeStyle=orthogonalEdgeStyle;rounded=0;orthogonalLoop=1;jettySize=auto;html=1;exitX=1;exitY=0.5;exitDx=0;exitDy=0;exitPerimeter=0;entryX=0;entryY=0.5;entryDx=0;entryDy=0;" parent="1" source="0BaWIgubVR3InF2J2Lcc-6" edge="1" target="N8kjzaMutWlSzEv-_UNq-1">
          <mxGeometry relative="1" as="geometry">
            <mxPoint x="530" y="-1980" as="targetPoint" />
          </mxGeometry>
        </mxCell>
        <mxCell id="N8kjzaMutWlSzEv-_UNq-18" value="Correct" style="edgeStyle=orthogonalEdgeStyle;rounded=0;orthogonalLoop=1;jettySize=auto;html=1;entryX=1;entryY=0.5;entryDx=0;entryDy=0;" edge="1" parent="1" source="0BaWIgubVR3InF2J2Lcc-6" target="N8kjzaMutWlSzEv-_UNq-7">
          <mxGeometry relative="1" as="geometry">
            <mxPoint x="250" y="-1980" as="targetPoint" />
          </mxGeometry>
        </mxCell>
        <mxCell id="0BaWIgubVR3InF2J2Lcc-6" value="choose higher&amp;nbsp;&lt;div&gt;or lower&lt;/div&gt;" style="strokeWidth=2;html=1;shape=mxgraph.flowchart.decision;whiteSpace=wrap;" parent="1" vertex="1">
          <mxGeometry x="330" y="-2030" width="130" height="100" as="geometry" />
        </mxCell>
        <mxCell id="k9S6JB_G3xzHaX6I3Fsw-7" style="edgeStyle=orthogonalEdgeStyle;rounded=0;orthogonalLoop=1;jettySize=auto;html=1;exitX=0.5;exitY=1;exitDx=0;exitDy=0;" parent="1" edge="1">
          <mxGeometry relative="1" as="geometry">
            <mxPoint x="580" y="-1930" as="sourcePoint" />
            <mxPoint x="580" y="-1930" as="targetPoint" />
          </mxGeometry>
        </mxCell>
        <mxCell id="N8kjzaMutWlSzEv-_UNq-12" style="edgeStyle=orthogonalEdgeStyle;rounded=0;orthogonalLoop=1;jettySize=auto;html=1;exitX=0.5;exitY=1;exitDx=0;exitDy=0;entryX=1;entryY=0.5;entryDx=0;entryDy=0;" edge="1" parent="1" source="N8kjzaMutWlSzEv-_UNq-1" target="N8kjzaMutWlSzEv-_UNq-5">
          <mxGeometry relative="1" as="geometry" />
        </mxCell>
        <mxCell id="N8kjzaMutWlSzEv-_UNq-1" value="Set score to 0" style="rounded=1;whiteSpace=wrap;html=1;absoluteArcSize=1;arcSize=14;strokeWidth=2;" vertex="1" parent="1">
          <mxGeometry x="540" y="-2005" width="120" height="50" as="geometry" />
        </mxCell>
        <mxCell id="N8kjzaMutWlSzEv-_UNq-5" value="Output Score" style="rounded=1;whiteSpace=wrap;html=1;absoluteArcSize=1;arcSize=14;strokeWidth=2;" vertex="1" parent="1">
          <mxGeometry x="344" y="-1840" width="106" height="50" as="geometry" />
        </mxCell>
        <mxCell id="N8kjzaMutWlSzEv-_UNq-7" value="Add 1 to score" style="rounded=1;whiteSpace=wrap;html=1;absoluteArcSize=1;arcSize=14;strokeWidth=2;" vertex="1" parent="1">
          <mxGeometry x="140" y="-2005" width="110" height="50" as="geometry" />
        </mxCell>
        <mxCell id="N8kjzaMutWlSzEv-_UNq-10" value="End" style="strokeWidth=2;html=1;shape=mxgraph.flowchart.start_1;whiteSpace=wrap;" vertex="1" parent="1">
          <mxGeometry x="347" y="-1720" width="100" height="60" as="geometry" />
        </mxCell>
        <mxCell id="N8kjzaMutWlSzEv-_UNq-14" style="edgeStyle=orthogonalEdgeStyle;rounded=0;orthogonalLoop=1;jettySize=auto;html=1;exitX=0.5;exitY=1;exitDx=0;exitDy=0;entryX=0.5;entryY=0;entryDx=0;entryDy=0;entryPerimeter=0;" edge="1" parent="1" source="N8kjzaMutWlSzEv-_UNq-5" target="N8kjzaMutWlSzEv-_UNq-10">
          <mxGeometry relative="1" as="geometry" />
        </mxCell>
        <mxCell id="N8kjzaMutWlSzEv-_UNq-20" value="Yes" style="edgeStyle=orthogonalEdgeStyle;rounded=0;orthogonalLoop=1;jettySize=auto;html=1;exitX=0.5;exitY=0;exitDx=0;exitDy=0;exitPerimeter=0;entryX=0;entryY=0.5;entryDx=0;entryDy=0;" edge="1" parent="1" source="N8kjzaMutWlSzEv-_UNq-19" target="0BaWIgubVR3InF2J2Lcc-4">
          <mxGeometry relative="1" as="geometry" />
        </mxCell>
        <mxCell id="N8kjzaMutWlSzEv-_UNq-21" value="No" style="edgeStyle=orthogonalEdgeStyle;rounded=0;orthogonalLoop=1;jettySize=auto;html=1;exitX=0.5;exitY=1;exitDx=0;exitDy=0;exitPerimeter=0;entryX=0;entryY=0.5;entryDx=0;entryDy=0;" edge="1" parent="1" source="N8kjzaMutWlSzEv-_UNq-19" target="N8kjzaMutWlSzEv-_UNq-5">
          <mxGeometry relative="1" as="geometry" />
        </mxCell>
        <mxCell id="N8kjzaMutWlSzEv-_UNq-19" value="correct&lt;div&gt;draw again?&lt;/div&gt;" style="strokeWidth=2;html=1;shape=mxgraph.flowchart.decision;whiteSpace=wrap;" vertex="1" parent="1">
          <mxGeometry x="10" y="-2030" width="100" height="100" as="geometry" />
        </mxCell>
        <mxCell id="N8kjzaMutWlSzEv-_UNq-22" style="edgeStyle=orthogonalEdgeStyle;rounded=0;orthogonalLoop=1;jettySize=auto;html=1;exitX=0;exitY=0.5;exitDx=0;exitDy=0;entryX=1;entryY=0.5;entryDx=0;entryDy=0;entryPerimeter=0;" edge="1" parent="1" source="N8kjzaMutWlSzEv-_UNq-7" target="N8kjzaMutWlSzEv-_UNq-19">
          <mxGeometry relative="1" as="geometry" />
        </mxCell>
      </root>
    </mxGraphModel>
  </diagram>
</mxfile>
